<svg width="78" height="71" viewBox="0 0 78 71" fill="none" xmlns="http://www.w3.org/2000/svg">
<path d="M56.9305 17.0057C55.589 15.245 53.642 14.092 51.4517 13.7509C50.4972 13.6031 49.5362 13.609 48.5751 13.7735C46.441 10.8823 43.1212 9.13867 39.5894 9.13867C36.0637 9.13867 32.7439 10.8823 30.6037 13.7735C29.6426 13.6086 28.682 13.6031 27.727 13.7509C25.5368 14.0916 23.5898 15.2505 22.2483 17.0057C20.6134 19.1413 20.0145 21.9701 20.5947 24.7646C21.4496 28.8658 24.6445 31.9893 28.3826 32.8132C28.3765 32.8417 28.37 32.8758 28.37 32.9098V47.0926C28.37 47.1607 28.3826 47.2289 28.4135 47.2855C28.3887 47.3763 28.37 47.4674 28.37 47.5637C28.37 48.4666 29.5744 49.1425 32.058 49.637C34.1795 50.0629 37.0001 50.2959 39.9829 50.2959C42.9719 50.2959 45.7859 50.0629 47.9078 49.637C50.3915 49.1429 51.5959 48.461 51.5959 47.5637C51.5959 47.467 51.5833 47.3763 51.5524 47.2855C51.5772 47.2229 51.5959 47.1607 51.5959 47.0926L51.595 32.9098C51.595 32.8076 51.5576 32.7054 51.5014 32.6257C54.921 31.5805 57.7728 28.5987 58.5715 24.7646C59.1643 21.9702 58.5589 19.1413 56.9305 17.0057L56.9305 17.0057ZM47.4704 48.6433C45.4485 49.0241 42.7904 49.2396 39.9885 49.2396C37.1867 49.2396 34.5285 49.0296 32.5067 48.6433C30.2354 48.2114 29.5926 47.7174 29.5364 47.5696C29.5926 47.4218 30.2355 46.9222 32.5067 46.4959C34.5285 46.1151 37.1867 45.8996 39.9885 45.8996C42.7904 45.8996 45.4485 46.1096 47.4704 46.4959C49.7416 46.9277 50.3845 47.4218 50.4406 47.5696C50.3845 47.7174 49.742 48.2114 47.4704 48.6433ZM50.4406 32.9097V46.2516C49.8352 45.962 48.999 45.712 47.9134 45.4961C45.792 45.0701 42.9714 44.8372 39.9885 44.8372C36.9996 44.8372 34.1856 45.0701 32.0636 45.4961C30.9842 45.712 30.1419 45.962 29.5364 46.2516L29.5369 32.9949C29.805 33.0175 30.0735 33.0345 30.3417 33.0345C30.7909 33.0345 31.2466 33.0005 31.7019 32.9323C32.75 32.7675 33.7424 32.4212 34.6474 31.8987C36.1638 32.6653 37.8484 33.0857 39.5833 33.0857C41.3244 33.0857 43.0029 32.6709 44.5193 31.8987C45.4242 32.4212 46.4161 32.7675 47.4648 32.9323C47.9205 33.0005 48.3758 33.0345 48.825 33.0345C49.3678 33.0345 49.9045 32.9834 50.435 32.8867C50.4472 32.8927 50.4407 32.9038 50.4407 32.9097L50.4406 32.9097ZM57.4358 24.5656C56.456 29.2856 52.0694 32.563 47.6701 31.8815C46.9523 31.7678 46.2724 31.5578 45.6296 31.2512C45.6544 31.2341 45.6731 31.2171 45.6984 31.2056C45.7671 31.16 45.8355 31.1149 45.9043 31.0638C45.9478 31.0297 45.9918 31.0012 46.0414 30.9671C46.0914 30.933 46.1411 30.8934 46.1911 30.8534C46.2473 30.8078 46.3034 30.7682 46.3596 30.7226C46.397 30.6941 46.4283 30.6715 46.4592 30.643C46.528 30.5863 46.5963 30.5352 46.659 30.4782C46.6777 30.4611 46.6965 30.4441 46.7152 30.4271C46.7961 30.3589 46.871 30.2908 46.9459 30.2226L46.952 30.2171C47.651 29.5923 48.2686 28.8823 48.8054 28.0927C48.8241 28.0701 48.8367 28.0415 48.8554 28.019C48.8989 27.9564 48.9429 27.8882 48.9803 27.826C48.999 27.7975 49.0178 27.7634 49.0426 27.7353C49.0426 27.7297 49.0487 27.7297 49.0487 27.7238C49.2859 27.349 49.4979 26.9627 49.6976 26.5594C49.8287 26.2924 49.6976 25.9801 49.3982 25.8609C49.1048 25.7416 48.7618 25.8609 48.6308 26.1335C47.7259 27.9908 46.3034 29.5642 44.6059 30.598C44.5624 30.6205 44.5249 30.6491 44.481 30.6716C44.4248 30.7057 44.3687 30.7398 44.3125 30.7683C42.8709 31.575 41.2548 32.0179 39.5764 32.0179C37.8979 32.0179 36.2753 31.575 34.8402 30.7683C34.7841 30.7398 34.734 30.7057 34.6779 30.6716C34.6343 30.6431 34.5904 30.6205 34.5468 30.592C32.8498 29.5583 31.4268 27.985 30.5219 26.1275C30.3909 25.8605 30.0475 25.7412 29.7546 25.8549C29.4612 25.9742 29.3302 26.2868 29.4551 26.5534C29.6484 26.9568 29.8669 27.3431 30.1041 27.7178C30.1041 27.7234 30.1041 27.7234 30.1102 27.7293C30.1289 27.7579 30.1476 27.7919 30.1663 27.8201C30.2098 27.8882 30.2538 27.9508 30.2973 28.013C30.3161 28.0356 30.3287 28.0641 30.3474 28.0867C30.8841 28.8764 31.5078 29.5863 32.2069 30.2167C32.2879 30.2849 32.3627 30.353 32.4441 30.4212C32.4628 30.4382 32.4816 30.4497 32.4942 30.4667C32.563 30.5234 32.6313 30.5804 32.7001 30.6371C32.7314 30.6656 32.7623 30.6882 32.7997 30.7167C32.8559 30.7623 32.9181 30.8075 32.9743 30.853C33.0243 30.8871 33.0679 30.9267 33.1179 30.9608C33.168 30.9949 33.2115 31.0289 33.2616 31.063C33.3303 31.1086 33.3926 31.1537 33.4614 31.1993C33.4862 31.2163 33.5114 31.2334 33.5362 31.2504C32.8933 31.5571 32.2135 31.7675 31.4958 31.8808C27.0966 32.5623 22.7098 29.2848 21.73 24.5648C21.206 22.0485 21.7427 19.5152 23.1964 17.6066C24.3569 16.0844 26.0356 15.0848 27.9139 14.7893C28.5816 14.687 29.2619 14.67 29.9418 14.7496C29.8669 14.8689 29.7981 14.9937 29.7298 15.1133C29.5862 15.3744 29.705 15.6926 29.9918 15.8233C30.2787 15.9541 30.6282 15.8459 30.7718 15.5848C32.5999 12.2563 35.9759 10.1889 39.5765 10.1889C43.1771 10.1889 46.5529 12.2563 48.3811 15.5848C48.4808 15.7722 48.6867 15.88 48.9052 15.88C48.9927 15.88 49.0797 15.863 49.1672 15.8233C49.454 15.6926 49.5729 15.3744 49.4292 15.1133C49.3605 14.9885 49.2921 14.8693 49.2173 14.7496C49.8976 14.6759 50.5714 14.687 51.2452 14.7893C53.1233 15.0789 54.8022 16.0845 55.9626 17.6066C57.4299 19.5163 57.9601 22.0552 57.436 24.5655L57.4358 24.5656Z" fill="#80233A"/>
</svg>
