<svg width="55" height="55" viewBox="0 0 55 55" fill="none" xmlns="http://www.w3.org/2000/svg">
<path d="M41.5493 16.452H40.5871C40.6644 16.3191 40.7403 16.1862 40.809 16.0546C41.0143 15.6798 41.2233 15.2784 41.3489 14.9109C42.5888 11.7935 41.4852 8.15286 38.7269 6.25473C36.2144 4.52035 32.9601 4.52035 30.4352 6.25504C29.4206 6.95727 28.633 7.86733 28.0943 8.9575C27.8571 9.43231 27.6644 9.96086 27.4989 10.5658C27.3335 9.96085 27.1408 9.43231 26.905 8.96057C26.3655 7.86764 25.5776 6.95763 24.5629 6.25504C22.0437 4.51453 18.7903 4.51508 16.272 6.25381C13.5129 8.15241 12.4092 11.7934 13.6448 14.9006C13.7755 15.2443 13.9575 15.6329 14.1828 16.0433C14.254 16.1795 14.332 16.3161 14.4112 16.4515L13.4502 16.4518C10.281 16.4518 7.70288 19.0296 7.70288 22.1991V23.9587C7.70288 25.6717 8.79062 27.131 10.3096 27.6949L12.1526 39.6762C12.5869 42.5002 14.9763 44.5498 17.8331 44.5498H37.1656C40.0221 44.5498 42.4112 42.5002 42.8461 39.6762L44.6897 27.6949C46.2087 27.1314 47.2958 25.6713 47.2958 23.9587V22.1991C47.2964 19.0299 44.718 16.452 41.549 16.452L41.5493 16.452ZM29.2387 9.52547C29.6813 8.6296 30.3286 7.88254 31.1607 7.30614C33.2446 5.87434 35.929 5.87465 38.0019 7.30584C40.2753 8.87051 41.1834 11.8701 40.1521 14.4669C40.0469 14.7723 39.8673 15.1151 39.6832 15.4515C39.5533 15.6992 39.4014 15.949 39.247 16.2053L39.1233 16.394C39.1111 16.4134 39.0969 16.4327 39.0847 16.4517H28.1381V15.8057C28.1381 14.4316 28.2691 13.0698 28.5267 11.7596C28.7099 10.8404 28.9358 10.1313 29.2384 9.52546L29.2387 9.52547ZM31.331 26.669H23.6678V17.7291H31.331V26.669ZM15.8768 16.3958L15.7669 16.2273C15.6116 15.9722 15.4505 15.7076 15.3102 15.44C15.1083 15.0704 14.9508 14.7368 14.8373 14.4376C13.8161 11.8692 14.7246 8.86944 16.9986 7.30477C19.0761 5.86958 21.7607 5.86958 23.8371 7.30446C24.6703 7.88178 25.318 8.62878 25.7621 9.5278C26.0625 10.1287 26.2884 10.8381 26.4726 11.7569C26.7304 13.069 26.8611 14.4308 26.8611 15.8049V16.451H23.0295L15.9139 16.4507C15.9023 16.4332 15.8885 16.4142 15.8768 16.3958L15.8768 16.3958ZM8.98088 23.9583V22.1987C8.98088 19.7338 10.986 17.7286 13.4509 17.7286H22.39V26.6693L11.6909 26.6696C10.1962 26.669 8.98049 25.4533 8.98049 23.9586L8.98088 23.9583ZM13.4155 39.4816L11.6406 27.9458H23.0287V43.2719H17.8338C15.6121 43.2719 13.7536 41.6784 13.4158 39.4815L13.4155 39.4816ZM24.3063 43.2721V27.9459H30.6921V43.2721H24.3063ZM43.3599 27.9459L41.585 39.4818C41.2467 41.6784 39.3883 43.2722 37.1669 43.2722H31.9701V27.9461L43.3599 27.9459ZM46.0197 23.9581C46.0197 25.4528 44.8036 26.6688 43.309 26.6688L32.6083 26.6691V17.7285H41.5498C44.0146 17.7285 46.0198 19.7336 46.0198 22.1985L46.0197 23.9581Z" fill="#80233A"/>
</svg>
